<svg width="17" height="17" viewBox="0 0 17 17" fill="none" xmlns="http://www.w3.org/2000/svg">
<path d="M14.75 8.5C14.75 8.69891 14.671 8.88968 14.5303 9.03033C14.3897 9.17098 14.1989 9.25 14 9.25H9.25V14C9.25 14.1989 9.17098 14.3897 9.03033 14.5303C8.88968 14.671 8.69891 14.75 8.5 14.75C8.30109 14.75 8.11032 14.671 7.96967 14.5303C7.82902 14.3897 7.75 14.1989 7.75 14V9.25H3C2.80109 9.25 2.61032 9.17098 2.46967 9.03033C2.32902 8.88968 2.25 8.69891 2.25 8.5C2.25 8.30109 2.32902 8.11032 2.46967 7.96967C2.61032 7.82902 2.80109 7.75 3 7.75H7.75V3C7.75 2.80109 7.82902 2.61032 7.96967 2.46967C8.11032 2.32902 8.30109 2.25 8.5 2.25C8.69891 2.25 8.88968 2.32902 9.03033 2.46967C9.17098 2.61032 9.25 2.80109 9.25 3V7.75H14C14.1989 7.75 14.3897 7.82902 14.5303 7.96967C14.671 8.11032 14.75 8.30109 14.75 8.5Z" fill="black"/>
</svg>
